<svg width="90" height="80" viewBox="0 0 90 80" fill="none" xmlns="http://www.w3.org/2000/svg">
<g clip-path="url(#clip0)">
<path d="M76 9H15C12.2386 9 10 11.2386 10 14V16C10 18.7614 12.2386 21 15 21H76C78.7614 21 81 18.7614 81 16V14C81 11.2386 78.7614 9 76 9Z" fill="#525252" stroke="#525252"/>
<path d="M76 33H15C12.2386 33 10 35.2386 10 38V40C10 42.7614 12.2386 45 15 45H76C78.7614 45 81 42.7614 81 40V38C81 35.2386 78.7614 33 76 33Z" fill="#525252" stroke="#525252"/>
<path d="M76 58H15C12.2386 58 10 60.2386 10 63V65C10 67.7614 12.2386 70 15 70H76C78.7614 70 81 67.7614 81 65V63C81 60.2386 78.7614 58 76 58Z" fill="#525252" stroke="#525252"/>
</g>
<defs>
<clipPath id="clip0">
<rect width="90" height="80" fill="white"/>
</clipPath>
</defs>
</svg>
